USFL
nRows=232
nColumns=2
inDegrees=yes
endheader
time	tib_ant_r	
2.89415	 58.961987	
2.92742	 58.985286	
2.96069	 58.982636	
2.99395	 58.979983	
3.02722	 58.984176	
3.06048	 58.984967	
3.09375	 58.979665	
3.12702	 58.972894	
3.16028	 58.966220	
3.19355	 58.957715	
3.22681	 58.935170	
3.26008	 58.928607	
3.29335	 58.959872	
3.32661	 58.965638	
3.35988	 58.961762	
3.39315	 58.949464	
3.42641	 58.952594	
3.45968	 58.955695	
3.49294	 58.956171	
3.52621	 58.964086	
3.55948	 58.962097	
3.59274	 58.967090	
3.62601	 58.949011	
3.65927	 58.969207	
3.69254	 58.969591	
3.72581	 58.981655	
3.75907	 59.019805	
3.79234	 59.018343	
3.8256	 59.012931	
3.85887	 58.996449	
3.89214	 58.992993	
3.9254	 59.004198	
3.95867	 59.016994	
3.99194	 59.038449	
4.0252	 59.063498	
4.05847	 59.054493	
4.09173	 59.066860	
4.125	 59.064702	
4.15827	 59.066528	
4.19153	 59.045762	
4.2248	 59.019843	
4.25806	 59.003391	
4.29133	 58.997640	
4.3246	 58.973938	
4.35786	 58.995181	
4.39113	 59.011413	
4.4244	 59.013453	
4.45766	 58.995309	
4.49093	 59.022471	
4.52419	 59.076477	
4.55746	 59.122120	
4.59073	 59.166411	
4.62399	 59.170821	
4.65726	 59.164037	
4.69052	 59.084539	
4.72379	 59.049868	
4.75706	 59.021094	
4.79032	 59.020341	
4.82359	 59.039349	
4.85685	 58.973283	
4.89012	 58.923457	
4.92339	 58.786857	
4.95665	 58.603127	
4.98992	 58.454461	
5.02319	 58.160368	
5.05645	 57.600377	
5.08972	 57.308727	
5.12298	 56.925548	
5.15625	 56.777943	
5.18952	 56.511600	
5.22278	 56.204321	
5.25605	 55.966942	
5.28931	 55.648344	
5.32258	 55.384580	
5.35585	 55.103398	
5.38911	 54.716572	
5.42238	 54.265055	
5.45565	 53.829692	
5.48891	 53.487364	
5.52218	 53.375353	
5.55544	 53.017231	
5.58871	 52.592015	
5.62198	 52.382066	
5.65524	 52.138396	
5.68851	 51.828855	
5.72177	 51.589381	
5.75504	 51.380157	
5.78831	 51.206776	
5.82157	 50.917550	
5.85484	 50.702066	
5.8881	 50.496401	
5.92137	 50.361482	
5.95464	 50.061658	
5.9879	 49.856786	
6.02117	 49.606561	
6.05444	 49.398558	
6.0877	 49.182067	
6.12097	 48.900606	
6.15423	 48.468834	
6.1875	 48.242818	
6.22077	 48.035379	
6.25403	 47.928819	
6.2873	 47.733475	
6.32056	 47.589719	
6.35383	 47.553499	
6.3871	 47.624625	
6.42036	 47.521208	
6.45363	 47.624552	
6.4869	 47.848130	
6.52016	 47.829295	
6.55343	 47.694295	
6.58669	 47.431598	
6.61996	 46.485098	
6.65323	 46.393794	
6.68649	 46.280705	
6.71976	 46.263535	
6.75302	 46.259764	
6.78629	 46.236908	
6.81956	 46.188010	
6.85282	 46.296012	
6.88609	 46.301093	
6.91935	 46.221636	
6.95262	 46.202791	
6.98589	 46.195212	
7.01915	 46.166086	
7.05242	 46.151496	
7.08569	 46.141709	
7.11895	 45.239290	
7.15222	 45.216279	
7.18548	 45.261626	
7.21875	 45.336406	
7.25202	 45.359707	
7.28528	 45.324792	
7.31855	 45.319273	
7.35181	 45.316127	
7.38508	 45.314047	
7.41835	 45.354752	
7.45161	 45.331450	
7.48488	 45.348253	
7.51815	 45.358329	
7.55141	 45.369587	
7.58468	 45.440540	
7.61794	 45.463460	
7.65121	 45.488902	
7.68448	 45.522174	
7.71774	 45.568048	
7.75101	 45.519065	
7.78427	 45.506331	
7.81754	 45.526308	
7.85081	 45.521186	
7.88407	 45.489868	
7.91734	 45.517590	
7.9506	 45.447535	
7.98387	 45.455934	
8.01714	 45.443398	
8.0504	 45.460591	
8.08367	 45.468465	
8.11694	 45.429474	
8.1502	 45.398629	
8.18347	 45.369067	
8.21673	 45.414204	
8.25	 45.475632	
8.28327	 45.509575	
8.31653	 45.516414	
8.3498	 45.482600	
8.38306	 45.476724	
8.41633	 45.442143	
8.4496	 45.437203	
8.48286	 45.518952	
8.51613	 45.572618	
8.5494	 45.596768	
8.58266	 45.561384	
8.61593	 45.523210	
8.64919	 45.492205	
8.68246	 45.506190	
8.71573	 45.501846	
8.74899	 45.541153	
8.78226	 45.537697	
8.81552	 45.535339	
8.84879	 45.527483	
8.88206	 45.561065	
8.91532	 45.547128	
8.94859	 45.555212	
8.98185	 45.574380	
9.01512	 45.623988	
9.04839	 45.581602	
9.08165	 45.567614	
9.11492	 45.539612	
9.14819	 45.493077	
9.18145	 45.484584	
9.21472	 45.460986	
9.24798	 45.471070	
9.28125	 45.463218	
9.31452	 46.421473	
9.34778	 47.106807	
9.38105	 47.867881	
9.41431	 50.190167	
9.44758	 51.769534	
9.48085	 53.620032	
9.51411	 53.822169	
9.54738	 53.843486	
9.58065	 53.963270	
9.61391	 55.271494	
9.64718	 55.469591	
9.68044	 55.506339	
9.71371	 57.507918	
9.74698	 57.447047	
9.78024	 57.349660	
9.81351	 57.363150	
9.84677	 57.414192	
9.88004	 57.600615	
9.91331	 57.786586	
9.94657	 57.647403	
9.97984	 57.475996	
10.0131	 57.435788	
10.0464	 57.336280	
10.0796	 57.473540	
10.1129	 57.571765	
10.1462	 57.630069	
10.1794	 57.631614	
10.2127	 57.650609	
10.246	 57.830099	
10.2792	 57.919752	
10.3125	 57.920342	
10.3458	 57.920850	
10.379	 57.956780	
10.4123	 57.946192	
10.4456	 58.007230	
10.4788	 58.029828	
10.5121	 58.067338	
10.5454	 58.084952	
10.5786	 58.135169	
